<svg width="177" height="33" viewBox="0 0 177 33" fill="none" xmlns="http://www.w3.org/2000/svg">
<path d="M31.708 3.412C23.68 16.624 21.376 27.316 26.704 29.764C26.704 29.764 24.58 32.86 21.412 31.996C19.324 31.456 18.172 29.62 18.82 25.372C19.18 22.852 19.972 19.864 21.016 16.948H18.028C15.328 23.572 11.764 30.016 6.796 30.016C0.748 30.016 0.136 24.184 2.332 22.024C2.512 22.564 3.592 23.752 5.968 23.752C12.304 23.752 15.724 10.468 19.9 4.06C15.616 4.348 9.172 5.536 9.172 10.324C9.172 12.16 10.612 13.456 12.196 13.132C12.196 15.112 10.864 16.552 8.668 16.552C5.5 16.552 3.628 13.888 3.628 10.9C3.628 1.9 15.58 2.008 21.736 1.792C22.528 1.036 23.356 0.639998 24.256 0.639998C25.012 0.639998 25.372 0.963998 25.444 1.324C25.696 2.116 25.408 3.952 23.068 3.952C23.032 3.952 23.032 3.952 22.996 3.952C21.844 6.184 20.476 10.576 18.748 15.112H21.664C23.86 9.244 26.74 3.7 28.828 1.648C29.692 0.856 31.708 1.396 31.708 3.412ZM42.0805 19C42.5125 19 43.2685 19.432 43.2685 20.044C43.2685 20.188 43.2325 20.332 43.1605 20.476C41.2525 24.076 38.7325 27.964 36.2485 27.964C34.5925 27.964 33.8005 25.984 33.8005 24.292C33.8005 23.86 33.8365 23.428 33.9445 23.068H34.1245C33.3685 24.904 31.7485 28 29.4085 28C27.1045 28 26.0965 25.948 26.0965 23.356C26.0965 22.276 26.2765 21.124 26.6005 19.936C27.7885 15.868 30.8845 11.8 33.8005 11.8C36.5365 11.8 36.6445 14.5 36.8605 15.256H36.7525C36.7885 15.148 36.9685 14.68 37.0405 14.536C37.2205 14.356 37.6165 14.284 38.0125 14.284C38.9125 14.284 40.0285 14.68 40.0285 15.58V15.616C39.5245 16.624 37.7605 20.872 37.7605 22.816C37.7605 23.392 37.9405 23.752 38.3365 23.752C39.5965 23.752 41.0005 21.34 42.0805 19ZM31.4245 23.5C33.2965 23.5 35.8885 17.92 35.8885 15.508C35.8885 14.86 35.7085 14.428 35.2405 14.428C33.1165 14.428 30.4525 19.576 30.4525 22.096C30.4525 22.96 30.7405 23.5 31.4245 23.5ZM44.8874 28C39.5594 28 41.1074 19.684 44.1674 12.88C44.9594 11.116 48.6314 11.944 48.7034 13.168C46.1834 17.56 44.4194 24.4 46.4714 24.4C49.2434 24.4 53.3834 13.492 51.6554 10.828C53.4194 10.324 55.5074 11.98 55.6154 14.032C55.8674 18.82 49.5674 28 44.8874 28ZM67.5238 19C67.7038 18.676 68.9638 19.756 68.7118 20.296C67.2358 23.5 63.4198 29.044 58.8478 28.072C51.4318 26.488 55.7518 11.944 63.1678 11.944C65.1118 11.944 66.5878 13.168 66.5878 15.508C66.5878 18.604 63.6358 21.556 60.7558 20.836C60.1438 20.656 59.7478 20.368 59.4598 20.044C59.3878 20.404 59.3518 20.764 59.3518 21.088C59.3518 24.076 61.7998 24.04 62.0878 24.04C64.5358 24.04 66.6598 20.8 67.5238 19ZM63.7438 14.572C62.6998 14.248 60.8638 16.228 59.8918 18.46C62.9158 18.928 64.4638 14.824 63.7438 14.572ZM76.4622 27.964C74.3382 27.964 73.5102 26.92 73.5102 25.228C73.5102 20.44 78.0822 14.644 76.2102 14.644C74.0502 14.644 69.4782 22.996 69.1902 27.1V27.46C69.1902 28.504 65.6982 28.144 65.6982 25.012C65.6982 22.816 67.3542 17.38 69.8382 12.412C70.7382 10.648 73.7262 12.052 73.7262 12.916C73.1862 13.636 72.1782 15.508 71.6382 16.66H71.7822C73.3662 14.392 75.4182 11.8 77.8302 11.8C79.4142 11.8 80.6382 12.88 80.6382 14.536C80.6382 18.352 76.5702 23.788 78.5862 23.788C79.6662 23.788 81.5382 20.98 82.4382 19C83.1942 19 83.8062 19.828 83.6262 20.224C82.1502 23.284 78.8022 27.964 76.4622 27.964ZM115.523 0.747999C116.963 0.747999 117.611 1.936 117.611 2.764C117.611 2.98 117.251 3.448 116.963 3.88C109.655 16.804 108.359 28.216 114.407 29.296C114.407 29.296 113.255 32.86 109.151 32.86C103.535 32.86 105.875 21.952 109.331 12.88C105.731 17.38 102.311 22.24 102.167 24.904C102.167 25.084 101.843 25.3 101.663 25.3C100.223 25.3 99.7548 23.896 100.547 21.736C100.547 18.748 101.807 14.032 102.239 10.432C99.1428 18.46 95.1108 29.728 88.1268 29.728C81.6107 29.728 80.9267 23.464 83.3028 21.088C83.5188 21.7 84.6708 22.96 87.2268 22.96C94.4268 22.96 98.0628 10.684 102.203 4.276C97.5948 4.6 90.7548 5.896 90.7548 11.044C90.7548 13.024 92.3027 14.428 94.0308 14.068C94.0308 16.228 92.5548 17.776 90.2148 17.776C86.7588 17.776 84.7428 14.896 84.7428 11.656C84.7428 2.008 97.4148 2.044 104.147 1.828C105.047 0.963998 105.983 0.423999 107.027 0.423999C109.115 0.423999 107.927 4.168 105.083 4.168C104.975 4.312 104.903 4.456 104.795 4.636C105.551 7.516 102.599 16.66 102.167 20.116C104.183 16.48 113.075 0.747999 115.523 0.747999ZM128.846 19C129.278 19 130.034 19.432 130.034 20.044C130.034 20.188 129.998 20.332 129.926 20.476C128.018 24.076 125.498 27.964 123.014 27.964C121.358 27.964 120.566 25.984 120.566 24.292C120.566 23.86 120.602 23.428 120.71 23.068H120.89C120.134 24.904 118.514 28 116.174 28C113.87 28 112.862 25.948 112.862 23.356C112.862 22.276 113.042 21.124 113.366 19.936C114.554 15.868 117.65 11.8 120.566 11.8C123.302 11.8 123.41 14.5 123.626 15.256H123.518C123.554 15.148 123.734 14.68 123.806 14.536C123.986 14.356 124.382 14.284 124.778 14.284C125.678 14.284 126.794 14.68 126.794 15.58V15.616C126.29 16.624 124.526 20.872 124.526 22.816C124.526 23.392 124.706 23.752 125.102 23.752C126.362 23.752 127.766 21.34 128.846 19ZM118.19 23.5C120.062 23.5 122.654 17.92 122.654 15.508C122.654 14.86 122.474 14.428 122.006 14.428C119.882 14.428 117.218 19.576 117.218 22.096C117.218 22.96 117.506 23.5 118.19 23.5ZM142.021 19.864C140.797 22.744 137.953 28 135.433 28C129.601 28 134.425 17.308 135.685 14.716C135.613 14.752 135.541 14.788 135.469 14.824C134.749 15.148 133.525 15.328 132.265 15.328C131.977 16.12 131.005 18.46 129.673 20.944C129.385 21.448 127.837 20.908 128.161 20.368C129.205 18.388 130.033 16.084 130.393 15.112C127.909 14.212 129.025 11.116 129.961 10.612C130.897 11.8 134.497 11.692 138.025 10.936C139.429 10.612 139.861 13.06 139.645 13.42C137.953 16.228 135.037 23.644 137.233 23.644C138.241 23.644 139.753 20.944 140.653 19C141.013 18.244 142.273 19.36 142.021 19.864ZM155.13 19.036C155.706 19.036 156.498 19.54 156.21 20.368C155.454 22.456 152.394 28.108 148.614 28.108C144.618 28.108 144.762 23.176 144.114 21.16C143.25 23.212 142.53 25.732 142.53 27.46C142.53 28.504 139.001 28.18 139.001 24.976C139.001 21.448 144.33 9.82 147.534 5.644C148.254 4.708 149.189 4.528 149.658 4.528C151.674 4.528 152.394 6.256 152.142 6.544C149.154 8.812 146.958 12.88 145.482 15.868C146.886 13.708 148.794 11.8 150.774 11.8C152.97 11.8 154.338 12.844 154.338 15.04C154.338 19.576 150.054 21.844 146.778 21.484C147.57 22.636 148.254 23.968 149.766 23.968C152.502 23.968 154.77 19.864 155.13 19.036ZM149.694 14.14C148.11 14.14 146.454 16.516 144.978 19.252C150.63 19.252 151.602 14.14 149.694 14.14ZM166.594 19C166.774 18.676 168.034 19.756 167.782 20.296C166.306 23.5 162.49 29.044 157.918 28.072C150.502 26.488 154.822 11.944 162.238 11.944C164.182 11.944 165.658 13.168 165.658 15.508C165.658 18.604 162.706 21.556 159.826 20.836C159.214 20.656 158.818 20.368 158.53 20.044C158.458 20.404 158.422 20.764 158.422 21.088C158.422 24.076 160.87 24.04 161.158 24.04C163.606 24.04 165.73 20.8 166.594 19ZM162.814 14.572C161.77 14.248 159.934 16.228 158.962 18.46C161.986 18.928 163.534 14.824 162.814 14.572ZM172.977 12.196C170.312 17.272 169.017 23.824 170.709 23.824C172.005 23.824 173.589 20.872 174.453 19.036C174.777 19.036 175.929 19.72 175.569 20.44C174.273 22.96 171.897 28.108 169.017 28.108C163.58 28.108 165.704 18.964 169.089 11.944C168.188 11.944 167.397 12.016 166.929 12.304C166.425 12.196 166.533 10.72 167.721 10.468C168.153 10.396 168.909 10.432 169.773 10.504C170.673 8.812 171.645 7.228 172.581 6.112C173.625 4.78 176.865 6.94 176.289 7.624C175.353 8.452 174.489 9.604 173.733 10.864C174.741 10.9 175.641 10.792 176.145 10.468C176.757 10.864 176.253 12.088 175.245 12.268C174.777 12.376 173.949 12.304 172.977 12.196Z" fill="black"/>
</svg>
